<?xml version="1.0" encoding="utf-8"?>
<!-- Generator: Adobe Illustrator 16.0.0, SVG Export Plug-In . SVG Version: 6.00 Build 0)  -->
<!DOCTYPE svg PUBLIC "-//W3C//DTD SVG 1.1//EN" "http://www.w3.org/Graphics/SVG/1.1/DTD/svg11.dtd">
<svg version="1.1" id="Layer_1" xmlns="http://www.w3.org/2000/svg" xmlns:xlink="http://www.w3.org/1999/xlink" x="0px" y="0px"
	 width="612px" height="608.161px" viewBox="0 0 612 608.161" enable-background="new 0 0 612 608.161" xml:space="preserve">
<g>
	<g>
		<g>
			<g>
				<path fill="#ECBA29" d="M306.153,110.617c-107.52,0-195,87.481-195,195c0,107.52,87.48,195,195,195
					c107.519,0,194.999-87.48,194.999-195C501.152,198.098,413.672,110.617,306.153,110.617z M394.788,270.161h-35.454v-17.726
					c0-19.54-15.915-35.455-35.455-35.455v70.91c39.105,0,70.909,31.803,70.909,70.908c0,39.105-31.804,70.909-70.909,70.909v35.454
					h-35.454v-35.454c-39.105,0-70.91-31.804-70.91-70.909v-17.727h35.455v17.727c0,19.54,15.916,35.455,35.455,35.455v-70.91
					c-39.105,0-70.91-31.804-70.91-70.908c0-39.105,31.804-70.91,70.91-70.91v-35.455h35.454v35.455
					c39.105,0,70.909,31.805,70.909,70.91V270.161z"/>
			</g>
		</g>
		<g>
			<g>
				<path fill="#ECBA29" d="M252.97,252.435c0,19.539,15.916,35.455,35.455,35.455v-70.91
					C268.886,216.98,252.97,232.896,252.97,252.435z"/>
			</g>
		</g>
		<g>
			<g>
				<path fill="#ECBA29" d="M323.879,323.343v70.91c19.54,0,35.455-15.915,35.455-35.455
					C359.334,339.259,343.419,323.343,323.879,323.343z"/>
			</g>
		</g>
		<g>
			<g>
				<path fill="#285143" d="M306.153,3.071C139.976,3.071,3.607,139.44,3.607,305.616c0,166.176,136.369,302.545,302.546,302.545
					c166.176,0,302.544-136.369,302.544-302.545C608.697,139.44,472.329,3.071,306.153,3.071z M306.153,536.07
					c-127.074,0-230.455-103.382-230.455-230.454c0-127.071,103.381-230.454,230.455-230.454
					c127.07,0,230.453,103.382,230.453,230.454C536.606,432.688,433.224,536.07,306.153,536.07z"/>
			</g>
		</g>
	</g>
</g>
</svg>
