<?xml version="1.0" encoding="utf-8"?>
<!-- Generator: Adobe Illustrator 16.0.0, SVG Export Plug-In . SVG Version: 6.00 Build 0)  -->
<!DOCTYPE svg PUBLIC "-//W3C//DTD SVG 1.1//EN" "http://www.w3.org/Graphics/SVG/1.1/DTD/svg11.dtd">
<svg version="1.1" id="Isolation_Mode" xmlns="http://www.w3.org/2000/svg" xmlns:xlink="http://www.w3.org/1999/xlink" x="0px"
	 y="0px" width="788px" height="800px" viewBox="0 0 788 800" enable-background="new 0 0 788 800" xml:space="preserve">
<g>
	<path fill="#184435" d="M85.733,310.763l11.66,98.385l-0.937,0.455l20.167,41.74l17.197,5.991l389.565-188.166l5.99-17.19
		l-20.16-41.748l-0.958,0.469l-73.981-66.005l56.54-43.314l-87.81-31.807L399.08,2.568c-48.865,23.607-76.911,78.407-92.982,131.333
		l-131.745,63.635c-53.821-19.175-117.288-29.766-169.578-4.509l51.661,43.943l-33.799,90.535L85.733,310.763z M297.471,166.659
		c-2.845,12.66-5.068,24.754-6.802,35.806c-9.367-3.663-20.161-3.593-29.934,1.119c-10.01,4.837-16.875,13.576-19.707,23.481
		c-10.297-5.417-21.804-11.094-34.275-16.596L297.471,166.659z M253.276,266.324c10.94,8.976,26.508,11.374,40.091,4.816
		c13.694-6.62,21.51-20.455,21.153-34.729l98.938-75.771l63.461,56.617L120.958,389.19l-10.081-85.089L253.276,266.324z"/>
	<path fill="#C19D05" d="M498.926,384.654c-96.421,76.813-146.285,152.101-130.731,171.633
		c15.568,19.531,100.098-12.241,196.513-89.061c96.414-76.806,146.271-152.095,130.717-171.626
		C679.864,276.068,595.326,307.841,498.926,384.654z"/>
	<path fill="#EDBB2E" d="M775.411,338.18l-53.842-67.571l-0.133,0.098c-36.924-38.441-152.549,17.12-244.698,90.535
		c-92.15,73.415-172.144,173.709-142.93,218.288l-0.126,0.099l19.714,24.739h21.216l-5.851-7.34
		c12.464,0.733,27.137-1.511,43.237-6.131l10.73,13.471h18.868l-14.583-18.309c12.332-4.396,25.327-9.996,38.665-16.547
		l27.781,34.855h18.867l-33.24-41.706c11.709-6.222,23.614-13.094,35.526-20.518l41.475,52.045
		c-5.809,3.587-11.521,6.97-17.141,10.179h31.975c21.573-13.659,43.091-29.011,63.468-45.25
		C728.414,484.214,809.784,381.326,775.411,338.18z M572.236,481.103c-106.648,84.964-203.405,116.017-223.552,90.738
		c-20.14-25.285,31.745-112.653,138.393-197.617s203.405-116.016,223.538-90.738C730.763,308.764,678.885,396.139,572.236,481.103z
		 M737.48,429.771l-40.958-51.416c8.444-11.681,15.624-23.097,21.259-33.974l40.188,50.444
		C753.104,405.388,746.239,417.146,737.48,429.771z"/>
	<path fill="#184435" d="M581.618,631.338c-16.197-2.118-32.437-3.9-48.809-4.124c-2.488-0.042-4.677-0.504-6.606-1.294H100.581
		l37.973-52.639h161.042c0.182-1.146,0.482-2.272,0.874-3.362h-0.72v-26.341H130.955l-12.045,6.166l-59.392,82.342l2.258,4.425
		h-5.068v147.642L71.549,799h498.968l14.855-14.848V636.511h-6.117L581.618,631.338z"/>
	<path fill="#ED1C24" d="M491.042,102.38l-87.809-31.807l-3.929-67.005c-48.864,23.607-76.911,78.407-92.982,131.333l-8.626,32.758
		c-2.845,12.66-5.068,24.754-6.802,35.806c-9.367-3.663-20.161-3.593-29.934,1.119c-10.011,4.837-16.875,13.576-19.707,23.481
		c-10.297-5.417-21.804-11.094-34.275-16.596l-32.401-12.933C120.757,179.361,57.29,168.77,5,194.027l51.661,43.943l-33.8,90.535
		l52.451-13.918l8.102-2.153l2.544-0.671l167.544-44.439c4.075,3.341,8.787,5.76,13.799,7.158c13.031-1.16,23.02-2.013,30.234-4.621
		c6.096-3.915,10.709-9.375,13.625-15.624c0.119-0.559,0.448-1.258,0.916-2.048c1.846-4.669,2.796-9.689,2.67-14.778l98.938-75.771
		l0.685,0.608c7.075-5.642,13.975-11.108,20.482-16.239l-0.349-0.314L491.042,102.38z"/>
</g>
</svg>
