<?xml version="1.0" encoding="utf-8"?>
<!-- Generator: Adobe Illustrator 19.0.0, SVG Export Plug-In . SVG Version: 6.00 Build 0)  -->
<svg version="1.0" id="Layer_1" xmlns="http://www.w3.org/2000/svg" xmlns:xlink="http://www.w3.org/1999/xlink" x="0px" y="0px"
	 viewBox="0 0 574.7 146.5" style="enable-background:new 0 0 574.7 146.5;" xml:space="preserve">
<style type="text/css">
	.st0{fill:#FFFFFF;}
	.st1{fill:#FDE611;}
</style>
<g id="XMLID_213_">
	<g id="XMLID_327_">
		<path id="XMLID_331_" class="st0" d="M82.6,46.4l-4.2,24.7H54.2l-12.1,72.1H6.6l12.1-72.1H2.5l4.1-24.7h16.3
			c1.7-11.4,5.4-24.2,8.6-28.9c3.2-4.8,7.8-8.6,14.1-11.4c6.2-2.8,14-4.2,23.5-4.2c8.3,0,15.9,0.9,22.8,2.6L88,27.9
			c-1.5-0.3-3.1-0.6-4.7-0.8c-4.5-0.4-9.1-0.3-13.4,0.9l0,0c-4.3,1.2-7.8,4.5-9.2,8.8c-1,3-1.7,6-2.3,9.6H82.6z"/>
	</g>
	<g id="XMLID_317_">
		<path id="XMLID_325_" class="st0" d="M405.7,136.6L405.7,136.6c-0.6,3.8-3.9,6.6-7.8,6.6h-0.4c-4.9,0-8.6-4.4-7.8-9.2v0
			c0.6-3.8,3.9-6.6,7.8-6.6h0.4C402.8,127.4,406.5,131.8,405.7,136.6z"/>
		<path id="XMLID_321_" class="st0" d="M496.8,103.7c-4-3.8-9.3-5.7-16.1-5.7c-7.4,0-13.5,2.4-18.4,7.3c-4.9,4.9-7.3,11.1-7.3,18.8
			c0,6.3,2.1,11.3,6.3,15c4.2,3.7,9.3,5.5,15.5,5.5c7.1,0,13.2-2.3,18.3-7c5.1-4.7,7.7-11.2,7.7-19.6
			C502.7,112.3,500.7,107.6,496.8,103.7z M486.1,128.9c-2.3,2.3-5,3.4-8.1,3.4c-2.7,0-5-0.9-6.9-2.7c-1.9-1.8-2.8-4.2-2.8-7.3
			c0-3.7,1.1-6.7,3.2-9.1c2.2-2.4,4.9-3.6,8.2-3.6c3,0,5.4,0.9,7.2,2.8c1.8,1.9,2.6,4.2,2.6,6.9
			C489.5,123.5,488.3,126.6,486.1,128.9z"/>
		<path id="XMLID_319_" class="st0" d="M508,99.1h15l-1.1,6.8c3.3-5.4,7.8-8.1,13.6-8.1c5.5,0,9.3,2.7,11.2,8.1
			c2.9-5.3,7.3-7.9,13.2-7.9c3.9,0,7,1.1,9.4,3.3c2.3,2.2,3.5,5.2,3.5,8.9c0,1.2-0.1,2.6-0.4,4.3l-4.8,28.7h-16.8l4.4-26.2
			c0.2-1.3,0.3-2.4,0.3-3.1c0-2.6-1.2-3.8-3.5-3.8c-1.4,0-2.6,0.5-3.6,1.6c-0.9,1.1-1.7,3.1-2.2,6.2l-4.2,25.3h-16.3l4.4-26.2
			c0.3-1.6,0.4-2.7,0.4-3.4c0-1.3-0.4-2.3-1.1-2.9c-0.8-0.6-1.5-0.9-2.4-0.9c-0.8,0-1.8,0.3-3.1,1c-1.2,0.7-2.1,2.7-2.7,6.1
			l-4.4,26.2h-16.2L508,99.1z"/>
		<path id="XMLID_318_" class="st0" d="M439.7,126.3c-0.7,1.5-1.5,2.8-2.6,3.8c-2.1,2-4.3,2.9-6.7,2.5c-2.1-0.3-3.6-1.5-4.8-3.5
			c-1.1-2-1.4-4.6-0.9-7.7c0.6-3.7,1.9-6.7,3.9-8.8c2-2.1,4.3-3,6.7-2.6c2.3,0.4,3.9,1.6,4.9,3.7c0.5,1,0.8,2,0.9,3.1l13.1-1.5
			c-0.5-4.4-2.3-8.2-5.4-11.4c-3.7-3.8-8.7-5.7-15-5.7c-6.9,0-12.6,2.4-17.1,7.3c-4.5,4.9-6.8,11.1-6.8,18.8c0,6.3,1.9,11.3,5.8,15
			c3.9,3.7,8.7,5.5,14.4,5.5c6.6,0,12.3-2.3,17.1-7c2.3-2.3,4-4.9,5.2-8L439.7,126.3z"/>
	</g>
	<path id="XMLID_230_" class="st1" d="M292.9,14.7c-7-5-18.1-7.5-33.3-7.5c-15.2,0-27.7,3.8-37.4,11.3c-9.7,7.5-14.6,17.8-14.6,30.8
		c0,6.3,1.1,11.2,3.3,14.9c2.5,3.8,5,6.1,7.5,7c-1.4,0.5-2.5,0.9-3.4,1.3c-0.9,0.4-2.9,1.7-6,3.9c-3.1,2.2-5.6,4.6-7.6,7.3
		c-2,2.6-3.9,6.5-5.7,11.5c-1.8,5-2.7,10.5-2.7,16.5c0,10.7,4,18.6,11.9,23.8c7.9,5.2,18.5,7.8,31.7,7.8c19.1,0,33.6-3.7,43.5-11.2
		c9.9-7.5,14.8-19.3,14.8-35.5c0-13.1-4.9-22.5-14.7-28.3l2.4-0.9c3.6-1.3,7.7-4.5,12.5-9.4c2.3-2.2,4.3-5.3,5.9-9.2
		c1.6-3.9,2.4-8.2,2.4-12.9C303.4,26.8,299.9,19.8,292.9,14.7z M251.3,116.1c-9.6,4.1-20.2,1.1-23.6-6.8
		c-3.4-7.9,1.7-17.7,11.3-21.8c9.6-4.1,20.2-1.1,23.6,6.8C266.1,102.2,261,112,251.3,116.1z M260.5,56.1c-8.3,3.5-17.3,0.9-20.2-5.8
		c-2.9-6.8,1.4-15.1,9.7-18.7c8.3-3.5,17.3-0.9,20.2,5.8C273.1,44.2,268.7,52.5,260.5,56.1z"/>
	<path id="XMLID_224_" class="st1" d="M397.6,14.7c-7-5-18.1-7.5-33.3-7.5c-15.2,0-27.7,3.8-37.4,11.3c-9.7,7.5-14.6,17.8-14.6,30.8
		c0,6.3,1.1,11.2,3.3,14.9c2.5,3.8,5,6.1,7.5,7c-1.4,0.5-2.5,0.9-3.4,1.3c-0.9,0.4-2.9,1.7-6,3.9c-3.1,2.2-5.6,4.6-7.6,7.3
		c-2,2.6-3.9,6.5-5.7,11.5c-1.8,5-2.7,10.5-2.7,16.5c0,10.7,4,18.6,11.9,23.8c7.9,5.2,18.5,7.8,31.7,7.8c19.1,0,33.6-3.7,43.5-11.2
		c9.9-7.5,14.8-19.3,14.8-35.5c0-13.1-4.9-22.5-14.7-28.3l2.4-0.9c3.6-1.3,7.7-4.5,12.5-9.4c2.3-2.2,4.3-5.3,5.9-9.2
		c1.6-3.9,2.4-8.2,2.4-12.9C408.1,26.8,404.6,19.8,397.6,14.7z M356,116.1c-9.6,4.1-20.2,1.1-23.6-6.8c-3.4-7.9,1.7-17.7,11.3-21.8
		c9.6-4.1,20.2-1.1,23.6,6.8C370.8,102.2,365.7,112,356,116.1z M365.2,56.1c-8.3,3.5-17.3,0.9-20.2-5.8c-2.9-6.8,1.4-15.1,9.7-18.7
		c8.3-3.5,17.3-0.9,20.2,5.8C377.7,44.2,373.4,52.5,365.2,56.1z"/>
	<path id="XMLID_217_" class="st0" d="M106.9,136.1c0.8,1.5,2.6,2.9,4.5,4.1c3.4,2.2,7.3,3.7,11.3,4.5c3.9,0.8,9.5,1.8,13.6,1.8
		c39.1,0,57.3-32.1,57.3-65.9c0-26-14.3-39.3-39-39.3c-0.1,0-0.2,0-0.3,0c-10.5,0-20.6,4.3-28.2,11.4c-1.6,1.5-3.1,3.3-4.5,5
		l-0.9,1.2l10.4-56.7H97.7l-25.2,141h33.2 M138.7,119.7c-16.4,0-19.3-11.9-17.1-23.9l-0.5,1.5l0.4-1.5l0.7-3.8l0.4-1.8l-0.2,1.8
		c3.6-18.4,13.7-25.4,25.7-25.4c10,0,17,6,17,19.7C164.9,104,154,119.7,138.7,119.7z"/>
</g>
</svg>
