<?xml version="1.0" encoding="utf-8"?>
<!-- Generator: Adobe Illustrator 19.0.0, SVG Export Plug-In . SVG Version: 6.00 Build 0)  -->
<svg version="1.1" id="Layer_1" xmlns="http://www.w3.org/2000/svg" xmlns:xlink="http://www.w3.org/1999/xlink" x="0px" y="0px"
	 viewBox="0 0 100 100" style="enable-background:new 0 0 100 100;" xml:space="preserve">
<style type="text/css">
	.st0{display:none;}
	.st1{display:inline;fill:#CE2028;}
	.st2{display:inline;fill:#FBD118;}
	.st3{display:inline;fill:#273476;}
	.st4{display:inline;fill:#FFFFFF;}
	.st5{display:inline;fill:#D0202D;}
	.st6{fill:#DD2E26;}
	.st7{fill:#FFDE00;}
</style>
<g id="XMLID_1_" class="st0">
	<path id="XMLID_3_" class="st1" d="M100.2,50c0,27.6-22.4,50-50,50c-27.6,0-50-22.4-50-50c0-27.6,22.4-50,50-50
		C77.8,0,100.2,22.4,100.2,50z"/>
	<polygon id="XMLID_2_" class="st2" points="50.2,20.8 57.4,43.1 80.8,43.1 61.9,56.9 69.1,79.2 50.2,65.4 31.2,79.2 38.4,56.9 
		19.5,43.1 42.9,43.1 	"/>
</g>
<g id="XMLID_25_" class="st0">
	<path id="XMLID_24_" class="st3" d="M3.6,30.8c-0.6,1.4-1.1,2.8-1.5,4.2h7.9L3.6,30.8z"/>
	<path id="XMLID_23_" class="st3" d="M95.9,69.3c0.6-1.4,1.1-2.8,1.6-4.3h-8L95.9,69.3z"/>
	<path id="XMLID_22_" class="st3" d="M14.3,85.2c5.6,5.7,12.6,10,20.5,12.5V71.6L14.3,85.2z"/>
	<path id="XMLID_21_" class="st3" d="M34.8,2.3c-7.9,2.5-14.9,6.8-20.5,12.5l20.5,13.7V2.3z"/>
	<path id="XMLID_20_" class="st3" d="M97.5,35c-0.5-1.4-1-2.8-1.5-4.2L89.7,35H97.5z"/>
	<path id="XMLID_19_" class="st3" d="M64.8,97.7c7.8-2.5,14.8-6.8,20.5-12.5L64.8,71.6V97.7z"/>
	<path id="XMLID_18_" class="st3" d="M2.1,65c0.5,1.5,1,2.9,1.6,4.3l6.4-4.3H2.1z"/>
	<path id="XMLID_17_" class="st3" d="M85.3,14.8C79.7,9.1,72.7,4.8,64.8,2.3v26.2L85.3,14.8z"/>
	<path id="XMLID_14_" class="st4" d="M99,58.7H58.6v40.5c2.1-0.4,4.2-0.9,6.2-1.5V71.6l20.5,13.7c2.3-2.3,4.4-4.9,6.2-7.7L72.6,65
		h11.9l10.3,6.9c0.4-0.8,0.8-1.7,1.2-2.6L89.5,65h8C98.2,63,98.6,60.9,99,58.7z"/>
	<path id="XMLID_11_" class="st4" d="M34.8,2.3v26.2L14.3,14.8c-2.3,2.3-4.3,4.8-6.1,7.4L27.3,35H15.5L4.9,28
		c-0.5,0.9-0.9,1.9-1.3,2.8L9.9,35H2.1c-0.6,2-1.1,4.1-1.5,6.3h40.5V0.8C38.9,1.2,36.8,1.7,34.8,2.3z"/>
	<path id="XMLID_10_" class="st4" d="M0.6,58.7C1,60.9,1.5,63,2.1,65h8l-6.4,4.3c1.2,2.9,2.7,5.7,4.4,8.3L27,65h7.8v2.7L12.1,82.8
		c0.7,0.8,1.5,1.6,2.2,2.4l20.5-13.7v26.1c2,0.6,4.1,1.1,6.3,1.5V58.7H0.6z"/>
	<path id="XMLID_9_" class="st4" d="M97.5,35h-7.8l6.3-4.2c-1.3-3-2.8-5.9-4.6-8.6L72.2,35h-7.4v-3l22.6-15c-0.7-0.7-1.3-1.5-2-2.2
		L64.8,28.5V2.3c-2-0.6-4.1-1.1-6.2-1.5v40.5H99C98.6,39.1,98.2,37,97.5,35z"/>
	<path id="XMLID_8_" class="st5" d="M99,41.3H58.6V0.8C55.7,0.3,52.8,0,49.8,0c-3,0-5.9,0.3-8.7,0.8v40.5H0.6
		C0.1,44.1-0.2,47-0.2,50c0,3,0.3,5.9,0.8,8.7h40.5v40.5c2.8,0.5,5.8,0.8,8.7,0.8c3,0,5.9-0.3,8.8-0.8V58.7H99
		c0.5-2.8,0.8-5.8,0.8-8.7C99.8,47,99.5,44.1,99,41.3z"/>
	<path id="XMLID_7_" class="st5" d="M72.6,65l18.9,12.6c1.2-1.8,2.3-3.7,3.3-5.7L84.5,65H72.6z"/>
	<path id="XMLID_6_" class="st5" d="M64.8,35h7.4l19.2-12.8c-1.2-1.8-2.6-3.6-4-5.2L64.8,32V35z"/>
	<path id="XMLID_5_" class="st5" d="M34.8,65H27L8.1,77.6c1.2,1.8,2.6,3.6,4,5.2l22.7-15.1V65z"/>
	<path id="XMLID_4_" class="st5" d="M27.3,35L8.2,22.3C7,24.1,5.9,26,4.9,28l10.5,7H27.3z"/>
</g>
<g>
	<path id="XMLID_31_" class="st6" d="M100,50c0,27.6-22.4,50-50,50c-27.6,0-50-22.4-50-50c0-27.6,22.4-50,50-50
		C77.6,0,100,22.4,100,50z"/>
	<g>
		<g id="XMLID_87_">
			<g id="XMLID_92_">
				<polygon id="XMLID_93_" class="st7" points="22.4,19.8 25.6,29.7 36.1,29.7 27.6,35.9 30.8,45.9 22.4,39.7 13.9,45.9 17.1,35.9 
					8.6,29.7 19.1,29.7 				"/>
			</g>
			<polygon id="XMLID_91_" class="st7" points="49.6,14.6 49.4,18 52.6,19.3 49.3,20.1 49.1,23.6 47.2,20.7 43.9,21.5 46.1,18.9 
				44.2,16 47.4,17.2 			"/>
			<polygon id="XMLID_90_" class="st7" points="61.4,25.7 59.8,28.8 62.3,31.2 58.9,30.7 57.3,33.8 56.8,30.4 53.4,29.8 56.4,28.3 
				55.9,24.9 58.3,27.3 			"/>
			<polygon id="XMLID_89_" class="st7" points="57.9,39.7 58.9,43 62.4,43 59.6,45 60.7,48.3 57.9,46.3 55.1,48.3 56.1,45 53.4,43 
				56.8,43 			"/>
			<polygon id="XMLID_88_" class="st7" points="49.6,50.2 49.4,53.7 52.6,54.9 49.3,55.8 49,59.2 47.2,56.3 43.9,57.2 46.1,54.5 
				44.2,51.6 47.4,52.9 			"/>
		</g>
	</g>
</g>
</svg>
