<?xml version="1.0" encoding="utf-8"?>
<!-- Generator: Adobe Illustrator 19.0.0, SVG Export Plug-In . SVG Version: 6.00 Build 0)  -->
<svg version="1.1" id="Layer_1" xmlns="http://www.w3.org/2000/svg" xmlns:xlink="http://www.w3.org/1999/xlink" x="0px" y="0px"
	 viewBox="0 0 800 800" style="enable-background:new 0 0 800 800;" xml:space="preserve">
<style type="text/css">
	.st0{fill:#FFFFFF;}
	.st1{fill:url(#XMLID_11_);}
	.st2{fill:#FFF200;}
</style>
<g id="XMLID_1_">
	<g id="XMLID_2_">
		<path id="XMLID_3_" class="st0" d="M336.2,777.7V568.8c28.7,16.6,62,26.2,97.5,26.2c107.5,0,195-87.5,195-195s-87.5-195-195-195
			c-107.5,0-195,87.5-195,195c0,0.5,0,1,0,1.5h0v216.3v119.8C268.9,755.1,301.6,768.7,336.2,777.7z M433.7,302.5
			c53.8,0,97.5,43.7,97.5,97.5s-43.7,97.5-97.5,97.5c-53.8,0-97.5-43.7-97.5-97.5S379.9,302.5,433.7,302.5z"/>
		<linearGradient id="XMLID_11_" gradientUnits="userSpaceOnUse" x1="141.2305" y1="-13.4499" x2="141.2305" y2="785.8837">
			<stop  offset="0" style="stop-color:#FFE399"/>
			<stop  offset="0.2442" style="stop-color:#C0A45C"/>
			<stop  offset="0.6492" style="stop-color:#947642"/>
			<stop  offset="1" style="stop-color:#CEB364"/>
		</linearGradient>
		<path id="XMLID_6_" class="st1" d="M141.2,398.5L141.2,398.5l0,1.5C141.2,399.5,141.2,399,141.2,398.5z"/>
	</g>
	<g id="XMLID_7_">
		<path id="XMLID_8_" class="st2" d="M640.5,193.3l68.9-68.9C638.7,53.7,541.2,10,433.7,10c-215,0-390,175-390,390
			c0,98.7,36.9,188.9,97.5,257.7V400c0-161.3,131.2-292.5,292.5-292.5C514.4,107.5,587.5,140.3,640.5,193.3z"/>
		<path id="XMLID_9_" class="st2" d="M640.5,606.7c-53,53-126.1,85.8-206.7,85.8V790c107.5,0,205-43.8,275.6-114.4L640.5,606.7z"/>
	</g>
</g>
</svg>
