<?xml version="1.0" encoding="utf-8"?>
<!-- Generator: Adobe Illustrator 16.0.0, SVG Export Plug-In . SVG Version: 6.00 Build 0)  -->
<!DOCTYPE svg PUBLIC "-//W3C//DTD SVG 1.1//EN" "http://www.w3.org/Graphics/SVG/1.1/DTD/svg11.dtd">
<svg version="1.1" id="Isolation_Mode" xmlns="http://www.w3.org/2000/svg" xmlns:xlink="http://www.w3.org/1999/xlink" x="0px"
	 y="0px" width="1212.757px" height="1153px" viewBox="0 0 1212.757 1153" enable-background="new 0 0 1212.757 1153"
	 xml:space="preserve">
<polygon fill="#2C2F38" points="605.878,1.208 778.383,400.834 1211.757,441.405 884.996,728.958 980.332,1153.657 605.878,931.748 
	231.424,1153.657 326.761,728.958 0,441.405 433.375,400.834 "/>
<g>
	<path fill="#FFE641" d="M450.331,705.604l47.937-206.613h64.175l-82.176,284.875h-59.871l-81.588-284.875h63.783L450.331,705.604z"
		/>
	<path fill="#FFE641" d="M649.314,783.867h-57.521V498.992h57.521V783.867z"/>
	<path fill="#FFE641" d="M755.165,683.693v100.174h-57.523V498.992h97.046c14.479,0,27.422,2.348,38.838,7.044
		c11.412,4.695,21.097,11.25,29.054,19.663c7.955,8.414,14.054,18.392,18.296,29.936c4.235,11.544,6.357,24.099,6.357,37.664
		c0,13.827-2.122,26.315-6.357,37.468c-4.242,11.15-10.341,20.641-18.296,28.47c-7.957,7.825-17.675,13.859-29.151,18.096
		c-11.479,4.241-24.395,6.361-38.74,6.361H755.165z M755.165,635.755h39.522c5.997,0,11.183-1.042,15.555-3.131
		c4.368-2.084,7.954-4.988,10.761-8.707c2.804-3.717,4.858-8.149,6.164-13.304c1.302-5.152,1.956-10.792,1.956-16.925
		c0-6.129-0.654-11.999-1.956-17.61c-1.306-5.605-3.36-10.565-6.164-14.87c-2.807-4.303-6.393-7.759-10.761-10.37
		c-4.372-2.607-9.558-3.912-15.555-3.912h-39.522V635.755z"/>
</g>
</svg>
